<?xml version="1.0" standalone="no"?>
<!DOCTYPE svg PUBLIC "-//W3C//DTD SVG 20010904//EN"
 "http://www.w3.org/TR/2001/REC-SVG-20010904/DTD/svg10.dtd">
<svg version="1.0" xmlns="http://www.w3.org/2000/svg"
 width="512.000000pt" height="512.000000pt" viewBox="0 0 512.000000 512.000000"
 preserveAspectRatio="xMidYMid meet">
<metadata>
Created by potrace 1.11, written by Peter Selinger 2001-2013
</metadata>
<g transform="translate(0.000000,512.000000) scale(0.100000,-0.100000)"
fill="#000000" stroke="none">
<path d="M0 2560 l0 -2560 2560 0 2560 0 0 2560 0 2560 -2560 0 -2560 0 0
-2560z m2465 2048 c342 -67 698 -273 1014 -589 306 -306 566 -749 750 -1283
137 -397 195 -808 171 -1209 -12 -203 -15 -217 -37 -217 -11 0 -2 -13 24 -38
33 -29 42 -46 47 -82 17 -130 12 -160 -35 -214 -60 -68 -208 -137 -517 -240
-425 -142 -879 -244 -1123 -253 -275 -11 -737 39 -989 108 -432 117 -703 277
-928 548 -142 170 -219 382 -238 647 -19 276 122 603 359 836 329 322 768 488
1292 488 159 0 393 -23 517 -50 166 -37 376 -114 541 -196 38 -20 71 -33 73
-31 10 10 -18 221 -37 285 -52 169 -186 371 -347 522 -269 253 -616 405 -823
361 -32 -7 -98 -37 -164 -75 -120 -69 -165 -86 -236 -86 -53 0 -74 17 -64 52
6 19 5 21 -6 11 -20 -20 -32 -16 -77 27 -42 41 -42 41 -42 113 0 156 49 276
155 382 115 115 284 189 470 204 92 8 113 6 250 -21z"/>
<path d="M2408 2529 c-203 -17 -440 -67 -633 -136 -436 -154 -647 -375 -621
-653 8 -88 43 -156 120 -227 117 -110 289 -195 522 -258 184 -49 311 -66 539
-72 231 -6 399 7 789 63 421 59 563 75 751 81 99 4 169 9 155 13 -20 4 -40 35
-105 160 -137 266 -223 387 -393 558 -121 121 -231 207 -367 287 -124 74 -205
106 -375 155 -153 43 -185 45 -382 29z"/>
</g>
</svg>
