<?xml version="1.0" standalone="no"?>
<!DOCTYPE svg PUBLIC "-//W3C//DTD SVG 20010904//EN"
 "http://www.w3.org/TR/2001/REC-SVG-20010904/DTD/svg10.dtd">
<svg version="1.0" xmlns="http://www.w3.org/2000/svg"
 width="512.000000pt" height="512.000000pt" viewBox="0 0 512.000000 512.000000"
 preserveAspectRatio="xMidYMid meet">
<metadata>
Created by potrace 1.11, written by Peter Selinger 2001-2013
</metadata>
<g transform="translate(0.000000,512.000000) scale(0.100000,-0.100000)"
fill="#000000" stroke="none">
<path d="M915 5100 c-4 -6 -11 -8 -16 -4 -5 3 -8 0 -7 -8 2 -7 -3 -12 -9 -10
-7 1 -12 -3 -10 -10 1 -7 -5 -12 -13 -13 -8 0 -14 -7 -12 -14 1 -7 -1 -10 -6
-7 -5 3 -19 -6 -32 -19 -13 -13 -27 -22 -33 -18 -6 3 -7 1 -4 -4 4 -6 -3 -19
-16 -29 -21 -19 -21 -19 -7 1 14 20 14 20 -7 1 -13 -10 -20 -22 -17 -27 2 -4
-4 -6 -16 -4 -11 2 -19 -1 -17 -8 1 -7 -4 -11 -10 -10 -7 2 -12 -3 -10 -10 1
-6 -4 -11 -10 -10 -7 2 -13 -4 -13 -13 0 -8 -4 -13 -9 -10 -4 3 -18 -6 -31
-19 -13 -13 -27 -22 -33 -18 -6 3 -7 1 -4 -4 4 -6 -3 -19 -16 -29 -21 -19 -21
-19 -7 1 14 20 14 20 -7 1 -13 -10 -20 -22 -17 -27 2 -4 -5 -6 -17 -4 -17 3
-19 2 -9 -10 10 -12 8 -13 -10 -10 -18 3 -20 2 -10 -10 10 -12 8 -13 -9 -10
-14 2 -21 -1 -21 -11 0 -8 -6 -13 -12 -12 -7 2 -12 -3 -10 -10 1 -6 -4 -11
-10 -10 -7 2 -12 -2 -11 -9 2 -7 -6 -10 -17 -8 -12 2 -18 0 -16 -4 3 -5 -4
-17 -17 -27 -21 -19 -21 -19 -7 1 14 20 14 20 -7 1 -13 -10 -20 -23 -17 -28 3
-4 0 -7 -8 -6 -7 2 -12 -2 -11 -9 2 -7 -6 -10 -18 -8 -17 3 -19 2 -9 -10 10
-12 8 -13 -9 -10 -14 2 -21 -1 -21 -11 0 -8 -4 -12 -10 -9 -5 3 -10 -1 -10 -9
0 -9 -6 -15 -12 -13 -7 1 -12 -5 -10 -13 2 -8 0 -12 -4 -7 -4 4 -20 -5 -36
-20 -15 -15 -28 -23 -28 -18 0 5 -13 -4 -30 -20 -16 -15 -27 -32 -24 -36 2 -4
-4 -6 -16 -4 -11 2 -19 -1 -17 -8 1 -7 -4 -11 -10 -10 -7 2 -12 -3 -10 -10 1
-6 -4 -11 -10 -10 -10 2 -13 -440 -13 -2187 l0 -2190 2555 0 2555 0 0 2555 0
2555 -2099 0 c-1412 0 -2102 -3 -2106 -10z m-775 -633 c0 -2 -10 -12 -22 -23
l-23 -19 19 23 c18 21 26 27 26 19z m2618 -262 c95 -43 148 -113 177 -237 39
-167 24 -486 -32 -661 -8 -27 -13 -51 -10 -53 3 -3 23 0 46 6 66 17 411 31
494 20 236 -34 353 -196 306 -422 -24 -115 -87 -200 -182 -249 -85 -44 -317
-84 -559 -97 -81 -5 -150 -11 -153 -14 -13 -13 -17 -471 -6 -657 18 -311 47
-479 99 -574 35 -66 82 -89 188 -95 78 -4 84 -3 175 38 261 118 453 17 467
-245 14 -258 -176 -443 -525 -514 -326 -67 -642 18 -906 243 -92 80 -131 149
-203 363 -80 240 -107 476 -108 943 0 173 3 358 7 412 l8 96 -68 6 c-160 14
-215 33 -292 102 -137 123 -141 344 -10 489 80 87 207 134 360 135 l67 0 8 33
c4 17 9 172 10 342 1 208 5 324 13 354 26 93 91 165 196 217 91 45 138 54 265
50 90 -2 114 -6 168 -31z"/>
</g>
</svg>
